<?xml version="1.0" encoding="UTF-8"?>
<svg xmlns="http://www.w3.org/2000/svg" viewBox="0 0 680 226" width="680" height="226">
  <defs>
    <style>
      .lb {fill: #08b2ff}
      .db {fill: #00205b}
    </style>
  </defs>
  <g class="lb">
    <path d="M111.927,177.839c-30.911,0-45.107-15.949-45.107-64.454s14.195-64.454,45.107-64.454h84.711c30.911,0,45.107,15.949,45.107,64.454s-14.195,64.454-45.107,64.454h-84.711ZM95.101,184.252h118.362c35.899,0,54.205-22.636,54.205-70.866s-18.306-70.866-54.205-70.866h-118.362c-35.899,0-54.205,22.636-54.205,70.866s18.306,70.866,54.205,70.866Z"/>
    <g>
      <path d="M176.513,142.428c-.283.01-.516.236-.547.532-.031.296.149.57.423.645l37.828,10.287c.046.013.104.019.152.019.314,0,.569-.268.569-.598v-11.594c0-.162-.062-.317-.173-.43-.111-.113-.265-.183-.414-.168l-37.837,1.307Z"/>
      <path d="M214.227,109.751l-.004-.006-56.482-13.348c-2.792-.745-4.952-1.624-6.422-2.613-2.006-1.623-3.048-3.682-2.935-5.801.181-3.408,3.423-6.234,7.913-6.877l57.926-11.74v-.002c.452-.096.767-.509.767-1.006,0-.577-.414-1.029-.978-1.029v.034l-.069-.04-127.957,15.286-.018.3-.027-.298c-.497.049-.872.492-.872,1.031,0,.398.203.753.529.928l.224.074-.002.007,57.343,13.596c4.998.92,8.613,4.465,8.41,8.246-.144,2.803-2.348,5.245-5.751,6.373-.092.03-.186.058-.281.086l-.137.041c-.089.028-.174.05-.243.068l-59.199,11.957c-.503.032-.889.474-.889,1.032,0,.57.425,1.034.948,1.034.062,0,.116-.009.157-.02l128.022-15.29.086-.104.02.065c.406-.134.678-.53.678-.986,0-.491-.317-.904-.759-.999Z"/>
      <polygon points="86.035 129.873 86.039 129.873 86.076 129.867 86.035 129.873"/>
      <path d="M213.98,115.02l-.067.004-127.959,15.987-.045.005v.002c-.473.061-.835.499-.835,1.022,0,.44.217.801.567.943l.096.029,128.165,26.43.118-.021v.027c.522,0,.947-.461.947-1.028,0-.466-.286-.877-.696-1l-57.65-15.625-.014-.013c-3.388-1.022-5.654-3.577-5.512-6.216.136-2.61,2.517-4.763,5.954-5.365l57.195-13.139.044-.058.01.033c.394-.134.669-.541.669-.99,0-.567-.427-1.028-.987-1.028Z"/>
    </g>
  </g>
  <g class="db">
    <path d="M306.437,74.866c1.394,1.312,3.061,2.46,5.002,3.444,1.939.983,4.086,1.832,6.437,2.542l6.479,1.804c2.076.656,3.854,1.271,5.33,1.845,1.476.574,2.65,1.177,3.525,1.805.874.629,1.518,1.381,1.927,2.255.41.875.615,1.914.615,3.116,0,1.914-.479,3.472-1.435,4.674-.957,1.203-2.393,2.091-4.306,2.665-1.914.574-4.428.86-7.544.86-1.367,0-2.692-.067-3.977-.205-1.285-.136-2.57-.341-3.854-.614-.8-.17-1.636-.355-2.49-.547l-2.471-11.917h-7.38l.738,19.762.246.082,7.005-.844c1.177.21,2.374.412,3.614.598,1.831.272,3.676.464,5.535.574,1.857.108,3.635.164,5.33.164,5.356,0,9.799-.671,13.324-2.01,3.526-1.339,6.136-3.292,7.831-5.862,1.694-2.569,2.542-5.712,2.542-9.431,0-2.296-.328-4.317-.983-6.067-.656-1.749-1.654-3.28-2.993-4.592-1.341-1.312-3.034-2.474-5.084-3.485-2.05-1.011-4.442-1.898-7.175-2.665l-7.217-2.132c-1.694-.492-3.185-.984-4.469-1.477-1.285-.491-2.365-1.052-3.239-1.681-.875-.628-1.53-1.366-1.968-2.214-.438-.847-.656-1.872-.656-3.075,0-1.64.438-3.006,1.312-4.1.874-1.093,2.241-1.928,4.1-2.501,1.858-.574,4.236-.861,7.135-.861,1.748,0,3.512.151,5.288.451,1.366.231,2.856.553,4.465.962l2.383,11.625h7.38l-.656-19.516-.246-.164-7.219.993c-1.055-.213-2.128-.413-3.236-.584-1.776-.272-3.513-.478-5.207-.614-1.694-.136-3.361-.205-5.002-.205-4.92,0-9.089.655-12.505,1.968-3.417,1.312-6.041,3.186-7.872,5.617-1.832,2.433-2.747,5.371-2.747,8.814,0,2.296.382,4.334,1.148,6.109.765,1.777,1.845,3.321,3.239,4.633Z"/>
    <path d="M372.504,101.024l-4.51-.82v-21.409c1.601-1.602,3.109-2.858,4.51-3.723,1.64-1.011,3.225-1.517,4.756-1.517.929,0,1.708.178,2.337.532.628.356,1.134.902,1.518,1.641.382.738.574,1.709.574,2.911v21.565l-4.511.82v5.002h19.681v-5.002l-4.429-.82v-21.552c1.523-1.479,2.975-2.671,4.347-3.54,1.64-1.038,3.225-1.558,4.756-1.558.929,0,1.722.164,2.378.491.656.328,1.175.861,1.558,1.6.382.738.574,1.736.574,2.993v21.565l-4.428.82v5.002h20.992v-5.002l-5.822-.82v-24.436c0-2.624-.465-4.742-1.395-6.355-.93-1.611-2.201-2.814-3.812-3.607-1.613-.792-3.432-1.189-5.453-1.189-1.804,0-3.622.356-5.453,1.066-1.832.711-3.622,1.763-5.371,3.157-1.121.893-2.229,1.916-3.327,3.045-.236-.919-.552-1.753-.978-2.472-.957-1.611-2.229-2.814-3.813-3.607-1.586-.792-3.39-1.189-5.411-1.189-1.805,0-3.623.369-5.453,1.107-1.833.737-3.622,1.776-5.371,3.116-1.3.995-2.585,2.165-3.854,3.507v-7.485l-.164-.164-15.498,2.87v5.084h5.822v27.552l-5.822.82v5.002h21.074v-5.002Z"/>
    <path d="M427.483,95.202c0,2.624.451,4.797,1.354,6.52.901,1.722,2.145,3.021,3.73,3.895,1.585.874,3.471,1.312,5.658,1.312,2.021,0,3.949-.356,5.781-1.066,1.831-.71,3.607-1.763,5.33-3.157,1.215-.983,2.408-2.103,3.583-3.346l.312,6.667h15.498v-5.002l-5.822-.82v-35.424l-.164-.164-16.399,2.87v5.166h5.822v20.325c-1.366,1.329-2.733,2.462-4.101,3.373-1.64,1.094-3.335,1.64-5.084,1.64-.93,0-1.75-.19-2.46-.574-.711-.382-1.244-.955-1.599-1.722-.356-.765-.533-1.722-.533-2.87v-28.044l-.164-.164-16.564,2.87v5.166h5.822v22.55Z"/>
    <path d="M496.191,101.024l-7.872-.82v-20.845c1.467-1.441,2.915-2.529,4.346-3.222,1.749-.848,3.526-1.271,5.33-1.271.874,0,1.694.082,2.46.246.765.164,1.559.41,2.378.738h1.148v-10.414c-.656-.273-1.285-.479-1.886-.615-.603-.136-1.312-.205-2.133-.205-1.586,0-3.171.369-4.756,1.107-1.586.737-3.13,1.899-4.633,3.484-1.089,1.149-2.141,2.549-3.157,4.184v-8.529l-.164-.164-15.498,2.87v5.084h5.822v27.552l-5.822.82v5.002h24.437v-5.002Z"/>
    <path d="M579.066,51.906h-8.445l-2.155,13.751-7.931,1.091v5.658h7.708v23.452c0,1.914.259,3.554.778,4.92.52,1.367,1.257,2.501,2.214,3.403.956.901,2.104,1.586,3.444,2.05,1.339.464,2.883.697,4.633.697,2.733,0,5.33-.466,7.79-1.395s4.783-2.104,6.97-3.525v-6.314h-.245c-1.805,1.094-3.514,1.968-5.125,2.624-1.613.656-3.131.984-4.552.984-1.694,0-2.966-.438-3.812-1.312-.849-.874-1.271-2.296-1.271-4.264v-21.32h14.104l.983-6.724v-.164h-15.088v-13.612Z"/>
    <path d="M514.494,100.204l-5.822.82v5.002h24.436v-5.002l-7.79-.82v-27.798h10.501l.902-6.724v-.164h-11.404v-5.166c0-1.749.259-3.144.779-4.183.519-1.037,1.243-1.804,2.173-2.296.929-.491,1.995-.737,3.198-.737,1.038,0,2.021.164,2.952.491.929.328,1.693.767,2.296,1.312h1.229v-7.872c-.93-.272-2.037-.505-3.32-.697-1.285-.19-2.611-.287-3.978-.287-3.007,0-5.727.533-8.159,1.6-2.433,1.065-4.374,2.747-5.821,5.043-1.449,2.296-2.173,5.221-2.173,8.773v4.148l-7.708,1.018v5.74h7.708v27.798Z"/>
    <polygon points="562.21 101.024 556.306 100.204 556.306 64.616 556.142 64.452 539.742 67.322 539.742 72.406 545.564 72.406 545.564 100.204 539.742 101.024 539.742 106.026 562.21 106.026 562.21 101.024"/>
    <path d="M545.154,57.113c1.257,1.066,2.842,1.599,4.756,1.599,1.969,0,3.567-.532,4.798-1.599,1.229-1.065,1.845-2.501,1.845-4.305s-.615-3.252-1.845-4.347c-1.23-1.093-2.829-1.64-4.798-1.64-1.914,0-3.499.547-4.756,1.64-1.258,1.095-1.886,2.542-1.886,4.347s.628,3.239,1.886,4.305Z"/>
    <polygon points="373.415 125.77 373.415 120.44 354.309 120.44 354.309 125.77 360.705 126.591 351.617 160.253 340.369 120.44 329.463 120.44 329.463 123.146 332.973 134.218 323.656 160.656 314.047 126.591 320.526 125.77 320.526 120.44 297.156 120.44 297.156 125.77 302.404 126.591 317.41 177.841 324.461 177.841 336.539 145.354 346.765 177.841 353.818 177.841 368.331 126.591 373.415 125.77"/>
    <path d="M396.006,138.727c-2.542-1.529-5.699-2.296-9.472-2.296-2.734,0-5.303.521-7.708,1.559-2.406,1.039-4.523,2.515-6.354,4.428-1.832,1.914-3.253,4.21-4.265,6.888-1.012,2.68-1.517,5.713-1.517,9.103,0,4.318.792,7.981,2.378,10.987,1.585,3.008,3.854,5.317,6.806,6.93,2.952,1.611,6.45,2.419,10.496,2.419,3.28,0,6.3-.451,9.062-1.354,2.76-.901,5.397-2.2,7.913-3.895v-6.314h-.164c-2.352,1.422-4.674,2.475-6.971,3.157-2.296.685-4.564,1.025-6.806,1.025-2.624,0-4.797-.505-6.519-1.518-1.723-1.011-3.008-2.596-3.854-4.756-.54-1.375-.887-2.99-1.083-4.797h25.643v-3.854c0-4.317-.63-7.967-1.887-10.946-1.258-2.979-3.156-5.234-5.698-6.766ZM379.975,146.435c.71-1.147,1.57-1.995,2.583-2.542,1.011-.546,2.118-.819,3.321-.819,1.64,0,3.005.479,4.1,1.435,1.093.957,1.913,2.488,2.46,4.592.343,1.322.578,2.909.706,4.759l-15.307.752c.086-1.443.246-2.744.497-3.871.382-1.723.93-3.157,1.641-4.306Z"/>
    <path d="M436.168,156.561c-1.531-1.119-3.608-2.035-6.232-2.747l-4.346-1.229c-1.531-.492-2.734-.97-3.608-1.436-.875-.464-1.504-.983-1.886-1.558-.383-.574-.574-1.243-.574-2.009,0-1.366.628-2.432,1.887-3.198,1.257-.765,2.951-1.147,5.084-1.147.983,0,1.98.068,2.992.204,1.012.138,2.01.356,2.993.656.984.301,1.928.644,2.829,1.025.902.383,1.708.848,2.419,1.394h1.23v-7.954c-.984-.437-2.173-.806-3.567-1.106-1.394-.3-2.884-.546-4.469-.738-1.586-.19-3.145-.287-4.674-.287-3.608,0-6.712.506-9.308,1.518-2.597,1.012-4.605,2.446-6.026,4.305-1.423,1.859-2.132,4.073-2.132,6.642,0,2.68.806,5.043,2.419,7.094,1.611,2.05,4.25,3.595,7.913,4.633l4.264,1.065c1.693.492,3.02.998,3.977,1.518.956.52,1.626,1.106,2.01,1.763.382.656.573,1.422.573,2.296,0,1.531-.614,2.706-1.845,3.526-1.229.819-3.104,1.229-5.617,1.229-1.422,0-2.884-.136-4.387-.41-1.504-.272-2.952-.668-4.346-1.188-1.395-.519-2.665-1.161-3.813-1.927h-1.147v7.954c1.037.438,2.268.819,3.689,1.147,1.421.328,2.979.601,4.674.82,1.694.218,3.444.328,5.248.328,3.881,0,7.175-.533,9.881-1.6,2.706-1.065,4.783-2.583,6.232-4.551,1.448-1.968,2.173-4.317,2.173-7.052,0-1.913-.369-3.608-1.106-5.084-.738-1.477-1.874-2.774-3.403-3.896Z"/>
    <path d="M461.866,123.721h-8.445l-2.156,13.751-7.93,1.091v5.658h7.708v23.452c0,1.914.259,3.554.778,4.92.52,1.367,1.257,2.501,2.214,3.403.956.901,2.104,1.586,3.444,2.05,1.339.464,2.883.697,4.633.697,2.733,0,5.33-.466,7.79-1.395s4.783-2.104,6.97-3.525v-6.314h-.245c-1.805,1.094-3.514,1.968-5.125,2.624-1.613.656-3.131.984-4.552.984-1.694,0-2.966-.438-3.812-1.312-.849-.874-1.271-2.296-1.271-4.264v-21.32h14.104l.983-6.724v-.164h-15.088v-13.612Z"/>
    <path d="M508.359,136.431c-1.586,0-3.171.369-4.756,1.107-1.586.737-3.13,1.899-4.633,3.484-1.089,1.149-2.141,2.549-3.157,4.184v-8.529l-.164-.164-15.498,2.87v5.084h5.822v27.552l-5.822.82v5.002h24.437v-5.002l-7.872-.82v-20.845c1.467-1.441,2.915-2.529,4.346-3.222,1.749-.848,3.526-1.271,5.33-1.271.874,0,1.694.082,2.46.246.765.164,1.559.41,2.378.738h1.148v-10.414c-.656-.273-1.285-.479-1.886-.615-.603-.136-1.312-.205-2.133-.205Z"/>
    <path d="M549.654,141.802c-1.612-1.722-3.595-3.047-5.944-3.977-2.352-.93-5.002-1.395-7.954-1.395-4.101,0-7.749.875-10.947,2.624-3.198,1.75-5.699,4.264-7.503,7.544s-2.706,7.271-2.706,11.973c0,3.171.437,6,1.312,8.486.874,2.488,2.118,4.592,3.731,6.314,1.612,1.722,3.594,3.048,5.945,3.977,2.35.929,5.002,1.395,7.954,1.395,4.1,0,7.749-.875,10.946-2.624,3.198-1.749,5.712-4.277,7.544-7.585,1.831-3.308,2.747-7.284,2.747-11.932,0-3.17-.45-5.998-1.353-8.486-.902-2.487-2.16-4.593-3.772-6.314ZM542.93,164.146c-.41,1.751-1.025,3.198-1.845,4.347-.82,1.147-1.792,1.996-2.911,2.542-1.121.547-2.365.819-3.731.819-1.804,0-3.361-.519-4.674-1.558-1.312-1.038-2.31-2.637-2.993-4.797-.684-2.159-1.024-4.906-1.024-8.241,0-2.35.205-4.414.614-6.191.41-1.775,1.025-3.238,1.846-4.387.819-1.147,1.775-1.995,2.87-2.542,1.093-.546,2.35-.82,3.771-.82,1.858,0,3.43.521,4.715,1.559,1.284,1.039,2.269,2.638,2.952,4.797.683,2.16,1.025,4.907,1.025,8.241,0,2.406-.205,4.482-.615,6.231Z"/>
    <path d="M586.324,170.953c-1.558.438-3.185.655-4.879.655-2.296,0-4.333-.545-6.109-1.64-1.776-1.093-3.171-2.706-4.182-4.838-1.012-2.132-1.517-4.838-1.517-8.118,0-2.186.259-4.112.778-5.781.52-1.667,1.271-3.074,2.255-4.223.984-1.148,2.187-2.009,3.608-2.583,1.421-.574,2.979-.861,4.674-.861s3.239.233,4.633.697c1.395.465,2.665,1.136,3.813,2.009h1.147v-8.118c-.93-.381-1.94-.696-3.033-.942-1.095-.246-2.27-.438-3.526-.574-1.258-.136-2.624-.205-4.1-.205-4.155,0-7.846.916-11.07,2.747-3.227,1.832-5.754,4.401-7.585,7.708-1.832,3.309-2.747,7.148-2.747,11.521,0,3.171.464,6.014,1.394,8.527.93,2.516,2.256,4.647,3.978,6.396,1.722,1.75,3.73,3.089,6.027,4.018,2.296.929,4.81,1.395,7.544,1.395,1.693,0,3.348-.151,4.961-.451,1.611-.301,3.129-.71,4.551-1.23,1.421-.519,2.706-1.134,3.854-1.845v-6.068h-.164c-1.312.767-2.746,1.367-4.305,1.805Z"/>
    <polygon points="620.778 153.604 632.578 143.507 638.598 142.417 638.598 137.333 618.016 137.333 618.016 142.417 622.979 143.189 610.964 153.241 610.8 153.241 610.8 117.98 610.636 117.816 594.236 120.604 594.236 125.606 600.058 125.606 600.058 172.019 594.236 172.839 594.236 177.841 615.638 177.841 615.638 172.839 610.8 172.019 610.8 157.505 610.964 157.505 627.446 177.841 639.418 177.841 639.418 174.807 620.778 153.604"/>
  </g>
</svg>